# xmcd
#
# Track frame offsets: 
#        150
#        15527
#        29047
#        47977
#        71360
#        84062
#        104245
#        117600
#        140352
#        159925
#        174660
#        202142
#
# Disc length: 2810 seconds
#
# Revision: 5
# Processed by: cddbd v1.5.2PL0 Copyright (c) Steve Scherf et al.
# Submitted via: ExactAudioCopy v0.99pb4
#
DISCID=a90af80c
DTITLE=Skip James - Today!
DYEAR=1988
DGENRE=Blues
TTITLE0=Hard Times Killing Floor Blues
TTITLE1=Crow Jane
TTITLE2=Washington D.C Hospital Center Blues
TTITLE3=Special Rider Blues
TTITLE4=Drunken Spree
TTITLE5=Cherryball
TTITLE6=How Long
TTITLE7=All Night Long
TTITLE8=Cypress Grove
TTITLE9=Look Down the Road
TTITLE10=My Gal
TTITLE11=I'm So Glad
EXTD=(c) 1988 Vanguard Records\nVMD 79219
EXTT0=
EXTT1=
EXTT2=
EXTT3=
EXTT4=
EXTT5=
EXTT6=
EXTT7=
EXTT8=
EXTT9=
EXTT10=
EXTT11=
PLAYORDER=
